<svg xmlns="http://www.w3.org/2000/svg" width="42" height="48" viewBox="0 0 42 48">
    <path fill="#1AA7E8" d="M39.321 10.179c.5.5.929 1.178 1.286 2.035.357.857.536 1.643.536 2.357V45.43c0 .714-.25 1.321-.75 1.821s-1.107.75-1.822.75h-36c-.714 0-1.321-.25-1.821-.75S0 46.143 0 45.429V2.57C0 1.857.25 1.25.75.75S1.857 0 2.571 0h24c.715 0 1.5.179 2.358.536.857.357 1.535.785 2.035 1.285l8.357 8.358zM27.43 3.643v10.071H37.5c-.179-.518-.375-.884-.59-1.098l-8.383-8.384c-.215-.214-.58-.41-1.098-.59zM37.714 44.57V17.143H26.571c-.714 0-1.321-.25-1.821-.75S24 15.286 24 14.57V3.43H3.429V44.57h34.285zm-24.857-24c.143-.196.33-.308.563-.334.232-.027.446.03.643.174l1.366 1.018c.196.142.308.33.334.562.027.232-.03.447-.174.643l-4.875 6.509 4.875 6.509c.143.196.201.41.174.643-.026.232-.138.42-.334.562l-1.367 1.018c-.196.143-.41.2-.642.174-.232-.027-.42-.138-.563-.335l-6.053-8.062c-.25-.34-.25-.679 0-1.018l6.053-8.063zm21.482 8.063c.25.34.25.678 0 1.018l-6.053 8.062c-.143.197-.33.308-.563.335-.232.027-.446-.031-.643-.174l-1.366-1.018c-.196-.143-.308-.33-.335-.562-.026-.233.032-.447.175-.643l4.875-6.51-4.875-6.508c-.143-.197-.201-.41-.175-.643.027-.232.139-.42.335-.562l1.366-1.018c.197-.143.411-.201.643-.174.232.026.42.138.563.334l6.053 8.063zM17.732 40.982c-.232-.036-.415-.152-.549-.348-.134-.197-.183-.41-.147-.643l3.696-22.259c.036-.232.152-.415.348-.549.197-.134.411-.183.643-.147l1.688.268c.232.035.415.151.549.348.134.196.183.41.147.643l-3.696 22.259c-.036.232-.152.415-.349.549-.196.134-.41.183-.642.147l-1.688-.268z"/>
</svg>
