<svg xmlns="http://www.w3.org/2000/svg" width="58" height="44" viewBox="0 0 58 44">
    <path fill="#1AA7E8" d="M53.835 11.884h-5.409l-1.55-8.78C46.52 1.065 44.55-.296 42.53.055L3.1 7.01C1.063 7.368-.303 9.32.058 11.36L4.263 35.2c.173.988.72 1.85 1.54 2.427.64.447 1.382.682 2.146.682.22 0 .44-.02.661-.059l1.437-.254v1.803c0 2.07 1.683 3.753 3.752 3.753h40.036c2.07 0 3.755-1.683 3.755-3.753V15.637c0-2.07-1.685-3.753-3.755-3.753zm.155 3.753v3.53H13.66l.138-3.683 40.19.153zM7.806 34.577L4.281 14.588l-.555-4.036 39.607-6.825 1.439 8.156H13.799c-2.07 0-3.752 1.683-3.752 3.753v18.64l-2.24.3zm46.03 5.374l-40.19-.153v-14.26H53.99v14.26c0 .085-.07.153-.155.153z"/>
</svg>
