<svg xmlns="http://www.w3.org/2000/svg" width="56" height="48" viewBox="0 0 56 48">
    <g fill="#1AA7E8">
        <path d="M52.05.106H3.688C1.684.106.06 1.73.06 3.734v30.468c0 1.202.975 2.176 2.177 2.176h20.796v3.301c.003 2.07-1.04 4-2.77 5.134h-.009c-.637.418-.924 1.205-.706 1.935.217.73.888 1.232 1.65 1.233h13.034c.752.001 1.415-.494 1.627-1.215.212-.721-.076-1.496-.709-1.902h-.006c-1.825-1.163-2.928-3.178-2.922-5.342v-3.144h13.92c.4 0 .725-.324.725-.725 0-.4-.325-.725-.725-.725H2.237c-.4 0-.726-.325-.726-.726V3.734c0-1.202.975-2.177 2.177-2.177H52.05c1.202 0 2.177.975 2.177 2.177v30.468c0 .4-.325.726-.726.726h-4.413c-.4 0-.725.324-.725.725 0 .4.325.725.725.725h4.413c1.202 0 2.177-.974 2.177-2.176V3.734c0-2.004-1.624-3.628-3.628-3.628zM30.77 36.378v3.144c-.006 2.657 1.348 5.132 3.588 6.56.092.058.135.17.105.274-.03.104-.127.175-.235.174h-13.03c-.12-.001-.226-.08-.26-.196s.01-.24.11-.307c2.146-1.4 3.438-3.79 3.434-6.351v-3.301l6.289.003z"/>
        <path d="M36.628 4.67c-.23-.23-.508-.405-.814-.512-.467-.166-.976-.166-1.443 0-.306.107-.584.282-.813.511l-4.662 4.663c-.586.58-.79 1.445-.526 2.227l.769 2.33 1.377-.459-.773-2.33c-.087-.26-.019-.548.175-.742l4.451-4.45v5.546c-1.074.356-1.731 1.438-1.55 2.556.18 1.117 1.144 1.938 2.275 1.938 1.132 0 2.096-.821 2.277-1.938.18-1.118-.477-2.2-1.551-2.556V5.908l4.442 4.45c.194.194.262.482.175.742l-2.714 8.137h-5.274l-1.27-3.812c-.081-.246-.288-.43-.542-.481-.254-.053-.517.035-.689.229-.172.194-.228.465-.146.71l1.185 3.555c-.994.443-1.544 1.522-1.317 2.587.227 1.065 1.168 1.826 2.257 1.825h.065v3.158c0 1.202.974 2.176 2.176 2.176h1.84c1.202 0 2.177-.974 2.177-2.176V23.85h.064c1.089 0 2.03-.76 2.256-1.825.227-1.065-.322-2.144-1.317-2.587l2.628-7.88c.263-.781.059-1.645-.526-2.226l-4.662-4.663zm-1.54 9.826c-.346 0-.659-.208-.791-.528-.133-.32-.06-.689.185-.934.245-.245.613-.318.933-.185.32.133.529.445.528.792 0 .472-.383.854-.855.855zm1.646 12.512c0 .4-.325.726-.726.726h-1.84c-.4 0-.725-.325-.725-.726V23.85h3.29v3.158zm2.37-5.465c0 .473-.382.856-.855.856h-6.322c-.46-.017-.824-.395-.824-.855 0-.46.364-.838.824-.856h6.322c.227 0 .445.09.605.25.16.16.25.378.25.605zM25.139 7.29c0-1.375-1.046-2.523-2.415-2.65-1.368-.127-2.608.81-2.86 2.161-.252 1.352.567 2.672 1.89 3.047v3.97h-1.21c-.4 0-.725.325-.725.726v1.192c-5.892.054-10.64 4.846-10.64 10.738v1.128c0 .4.325.725.726.725.4 0 .725-.325.725-.725v-1.123c-.001-5.092 4.098-9.234 9.189-9.286v1.225c0 .4.325.725.725.725h1.21v4.284c-1.278.362-2.092 1.61-1.91 2.925.183 1.315 1.307 2.294 2.635 2.294 1.328 0 2.452-.979 2.635-2.294.182-1.315-.632-2.563-1.91-2.925v-4.289h1.21c.4 0 .725-.324.725-.725v-3.87c0-.4-.325-.725-.725-.725h-1.21v-3.97c1.145-.325 1.935-1.37 1.935-2.559zm-1.45 18.69c0 .668-.542 1.21-1.21 1.21-.668 0-1.21-.542-1.21-1.21 0-.667.542-1.209 1.21-1.209.668 0 1.21.542 1.21 1.21zm0-8.293h-2.42V15.27h2.42v2.418zM21.268 7.29c0-.667.542-1.209 1.21-1.209.668 0 1.21.542 1.21 1.21 0 .667-.542 1.209-1.21 1.209-.32 0-.628-.128-.855-.355-.227-.226-.354-.534-.354-.855z"/>
        <path d="M53.743 32.51V4.216c0-1.202-.974-2.176-2.176-2.176H4.17c-1.202 0-2.176.974-2.176 2.176V32.51h51.748zM3.446 31.058V4.217c0-.4.325-.725.725-.725h47.396c.4 0 .725.325.725.725V31.06H3.446z"/>
    </g>
</svg>
