<svg xmlns="http://www.w3.org/2000/svg" width="48" height="48" viewBox="0 0 48 48">
    <g fill="none" fill-rule="evenodd">
        <path fill="#1AA7E8" fill-rule="nonzero" d="M23.78 3.083c11.552 0 20.917 9.365 20.917 20.917 0 11.552-9.365 20.917-20.917 20.917-11.553 0-20.918-9.365-20.918-20.917.013-11.547 9.37-20.905 20.918-20.917m0-2.863C10.647.22 0 10.867 0 24c0 13.133 10.647 23.78 23.78 23.78 13.133 0 23.78-10.647 23.78-23.78C47.56 10.867 36.913.22 23.78.22z"/>
        <path fill="#1AA7E8" fill-rule="nonzero" d="M24.255 3.083c.92 0 2.546 1.611 3.933 5.147 1.634 4.166 2.532 9.768 2.532 15.77 0 6.002-.88 11.604-2.532 15.77-1.387 3.522-3.008 5.147-3.933 5.147-.924 0-2.545-1.611-3.932-5.147-1.63-4.166-2.532-9.768-2.532-15.77 0-6.002.88-11.604 2.532-15.77 1.391-3.54 3.016-5.147 3.932-5.147m0-2.863c-5.152 0-9.327 10.648-9.327 23.78 0 13.132 4.175 23.78 9.327 23.78 5.153 0 9.327-10.648 9.327-23.78 0-13.132-4.174-23.78-9.327-23.78z"/>
        <path stroke="#1AA7E8" stroke-width="2.862" d="M3.373 31.429L45.138 31.429M3.373 16.567L45.138 16.567"/>
    </g>
</svg>
