<svg xmlns="http://www.w3.org/2000/svg" width="30" height="34" viewBox="0 0 30 34">
    <path fill="#FFF" d="M20.413 16.506c1.936-1.652 3.052-4.069 3.053-6.614v-1.18C23.338 3.99 19.474.23 14.752.23c-4.723 0-8.587 3.76-8.715 8.482v1.18c.003 2.546 1.121 4.963 3.06 6.614C3.727 18.006.01 22.895 0 28.47v4.247C0 33.426.574 34 1.283 34h26.943c.709 0 1.283-.574 1.283-1.283V28.47c-.01-5.575-3.726-10.464-9.096-11.964zM8.603 8.712c.107-3.319 2.828-5.954 6.149-5.954 3.32 0 6.041 2.635 6.148 5.954v1.18c-.107 3.319-2.828 5.954-6.148 5.954S8.71 13.21 8.602 9.892v-1.18zm18.34 22.722H2.566V28.47c.007-5.446 4.42-9.86 9.866-9.866h4.651c5.444.01 9.853 4.423 9.86 9.866v2.964z"/>
</svg>
