<svg xmlns="http://www.w3.org/2000/svg" width="48" height="34" viewBox="0 0 48 34">
    <path fill="#FFF" d="M32.62 2.059v-.566C32.62.67 31.95 0 31.12 0H1.5C.672 0 0 .669 0 1.493v27.032c0 .824.672 1.493 1.5 1.493h6.189C8.346 32.31 10.444 34 12.954 34s4.608-1.691 5.265-3.982h15.415C34.29 32.31 36.39 34 38.899 34c2.51 0 4.608-1.691 5.266-3.982h1.987c.062 0 .115-.028.174-.035.06.007.112.035.174.035.828 0 1.5-.669 1.5-1.493V17.098c0-7.877-6.773-14.356-15.38-15.04zm12.323 14.044h-5.634c-1.437-.392-1.728-2.954-1.728-6.945V6.38c4.088 1.887 6.966 5.5 7.362 9.724zM35.58 5.63v3.527c0 4.328.26 8.266 3.408 8.915.066.014.135.02.203.02H45v8.939h-.835c-.658-2.29-2.756-3.982-5.266-3.982-2.51 0-4.608 1.691-5.265 3.982H18.219c-.222-.775-.607-1.475-1.122-2.069H31.12c.402 0 .744-.24.903-.58.354-.273.596-.681.596-1.162V5.051c1.026.097 2.014.298 2.961.58zm-5.96 17.342H3V2.986h26.62v19.987zM3 24.963h5.812c-.516.594-.9 1.294-1.123 2.069h-4.69v-2.069zm9.954 6.05c-1.379 0-2.5-1.115-2.5-2.488 0-1.372 1.121-2.488 2.5-2.488 1.377 0 2.496 1.113 2.499 2.483l-.001.005v.005c-.002 1.37-1.12 2.484-2.498 2.484zm25.945 0c-1.379 0-2.5-1.115-2.5-2.488 0-1.372 1.121-2.488 2.5-2.488s2.5 1.116 2.5 2.488c0 1.373-1.121 2.489-2.5 2.489z"/>
</svg>
