<svg xmlns="http://www.w3.org/2000/svg" width="49" height="52" viewBox="0 0 49 52">
    <g fill="#1AA7E8">
        <path d="M21.86 16.786c.209.228.5.332.77.332s.541-.104.728-.29l5.72-5.43c.437-.416.458-1.081.042-1.518-.416-.437-1.082-.458-1.518-.042l-4.93 4.701-1.997-2.08c-.416-.437-1.081-.437-1.518-.02-.437.415-.437 1.081-.021 1.518l2.725 2.829z"/>
        <path d="M14.477 18.678c.894 4.618 4.95 7.967 9.651 7.967 4.7 0 8.757-3.349 9.651-7.967l1.352-6.947c.395-2.953-.499-5.928-2.454-8.174C30.722 1.31 27.893.02 24.918.02h-1.58c-2.975 0-5.804 1.29-7.759 3.536s-2.85 5.22-2.433 8.216l1.33 6.905zM17.18 4.971c1.539-1.768 3.785-2.787 6.136-2.787h1.58c2.351 0 4.597 1.02 6.137 2.787 1.539 1.768 2.246 4.14 1.955 6.407l-1.331 6.884c-.708 3.599-3.87 6.22-7.55 6.22-3.682 0-6.844-2.621-7.551-6.22l-1.331-6.843c-.292-2.33.416-4.68 1.955-6.448zM48.069 49.338L45.157 35.65c-.27-1.248-1.165-2.267-2.371-2.704l-9.34-3.307c-.374-.125-.79-.042-1.081.229l-8.237 7.696-8.237-7.696c-.291-.27-.707-.354-1.081-.229l-9.34 3.307c-1.185.416-2.1 1.456-2.37 2.704L.186 49.338c-.145.644.021 1.31.437 1.83s1.04.811 1.706.811h43.596c.666 0 1.29-.291 1.706-.811.416-.52.562-1.186.437-1.83zm-45.781.457L5.2 36.11c.104-.52.478-.957.978-1.123l8.736-3.1 8.486 7.925c.416.395 1.06.395 1.456 0l8.486-7.925 8.716 3.1c.499.187.873.603.977 1.123l2.87 13.728-43.617-.042z"/>
    </g>
</svg>
