<svg xmlns="http://www.w3.org/2000/svg" width="53" height="51" viewBox="0 0 53 51">
    <g fill="#1AA7E8">
        <path d="M24.471 47.941H27.53V51H24.471zM44.353 4.475v8.29h-3.059v-8.29c.006-.47-.231-.909-.627-1.162-.393-.265-.892-.316-1.33-.138-6.608 2.646-13.368 6.118-19.883 9.574h-6.5l4.925-2.554C24.47 6.785 31.246 3.236 37.96.53c1.112-.474 2.36-.518 3.502-.122 1.722.616 2.876 2.24 2.89 4.068z"/>
        <path d="M47.595 14.294H4.39C1.88 14.402-.078 16.51 0 19.02v27.193c-.054 1.227.387 2.425 1.224 3.325.836.9 1.999 1.426 3.227 1.462h15.431v-3.059H4.588c-.844 0-1.53-.685-1.53-1.53V18.883c0-.844.686-1.53 1.53-1.53h42.824c.844 0 1.53.686 1.53 1.53v7.647H27.528c-3.378 0-6.117 2.74-6.117 6.118 0 3.379 2.739 6.118 6.117 6.118h21.412v7.647c0 .844-.685 1.53-1.53 1.53H32.119V51H47.61c2.51-.108 4.467-2.214 4.389-4.726V19.035c.086-2.523-1.882-4.641-4.405-4.74zM27.53 35.706c-1.689 0-3.058-1.37-3.058-3.059 0-1.69 1.37-3.059 3.058-3.059h21.412v6.118H27.53z"/>
    </g>
</svg>
