<svg xmlns="http://www.w3.org/2000/svg" xmlns:xlink="http://www.w3.org/1999/xlink" width="64" height="64" viewBox="0 0 64 64">
    <defs>
        <filter id="tfj7wlpxfa" width="113.5%" height="113.5%" x="-6.8%" y="-3.4%" filterUnits="objectBoundingBox">
            <feOffset dy="2" in="SourceAlpha" result="shadowOffsetOuter1"/>
            <feGaussianBlur in="shadowOffsetOuter1" result="shadowBlurOuter1" stdDeviation="1"/>
            <feColorMatrix in="shadowBlurOuter1" values="0 0 0 0 0 0 0 0 0 0 0 0 0 0 0 0 0 0 0.04 0"/>
        </filter>
        <filter id="o1zzzkthzc" width="110.1%" height="110.1%" x="-5.1%" y="-1.7%" filterUnits="objectBoundingBox">
            <feOffset dx="-1" dy="-2" in="SourceAlpha" result="shadowOffsetInner1"/>
            <feComposite in="shadowOffsetInner1" in2="SourceAlpha" k2="-1" k3="1" operator="arithmetic" result="shadowInnerInner1"/>
            <feColorMatrix in="shadowInnerInner1" values="0 0 0 0 0.360733696 0 0 0 0 0.360733696 0 0 0 0 0.360733696 0 0 0 0.0492788462 0"/>
        </filter>
        <circle id="tjge2pz1kb" cx="29.6" cy="29.6" r="29.6"/>
    </defs>
    <g fill="none" fill-rule="evenodd">
        <g>
            <g>
                <g fill-rule="nonzero" transform="translate(-1387 -3330) translate(1389 3330)">
                    <use fill="#000" filter="url(#tfj7wlpxfa)" xlink:href="#tjge2pz1kb"/>
                    <use fill="#FFF" xlink:href="#tjge2pz1kb"/>
                    <use fill="#000" filter="url(#o1zzzkthzc)" xlink:href="#tjge2pz1kb"/>
                </g>
                <g transform="translate(-1387 -3330) translate(1389 3330) translate(7.2 20.8)">
                    <path fill="#D42127" fill-rule="nonzero" d="M12.327 10.161c-.116.03-.173.107-.195.223-.099.554-.216 1.104-.24 1.668-.018.262.006.526.07.781.122.432.396.73.834.816.8.159 1.536.018 2.08-.64.408-.496.575-1.067.316-1.702-.027-.067-.042-.136.048-.154.293-.06.587-.144.883-.02.34.143.508.411.512.767.006.659-.288 1.184-.79 1.587-.609.488-1.313.773-2.08.908-.545.096-1.094.081-1.64.025-.776-.081-1.506-.3-2.13-.796-.672-.532-.988-1.248-1.048-2.082-.02-.292-.003-.586-.036-.884-.1.24-.197.48-.3.72-.355.818-.826 1.551-1.54 2.11-.465.366-1.01.618-1.59.734-.036.005-.073.008-.11.008-.074-.036-.15.002-.224.002-1.517-.003-3.034-.003-4.55 0-.183 0-.365.004-.569-.01.034-.05.067-.092.052-.144.436-.724.588-1.538.747-2.352.24-1.24.492-2.48.737-3.722.082-.414.159-.83.24-1.245.008-.022.015-.045.02-.068l.428-2.1c.073-.231.075-.48.004-.713-.023-.116-.048-.232-.07-.348-.021-.132.043-.158.164-.157.872.005 1.745 0 2.618 0 .206 0 .206 0 .213.204-.001.037-.004.073-.009.11l-.47 2.4c-.049.235-.09.471-.14.732L5 6.553c.611-.363 1.248-.628 1.984-.578.88.06 1.529.462 1.906 1.27.272.584.329 1.204.288 1.838l-.019.33c.077-.152.147-.309.208-.468.2-.474.483-.9.792-1.308.017-.014.033-.029.048-.045.506-.592 1.157-1.043 1.889-1.309.814-.307 1.687-.422 2.553-.336.45.048.87.19 1.277.38l.002.003c.32.184.629.384.882.658.4.435.57.96.6 1.536.023.493-.022.988-.131 1.47-.015.065-.021.14-.11.155-.026-.02-.06-.027-.092-.021h-4.689c-.022 0-.044.003-.065.007l.004.026zm.086-.727l-.008.022c.011.005.024.008.036.01h1.797c.028 0 .056 0 .072-.03.151-.048.122-.189.147-.299.147-.631.229-1.276.244-1.925.007-.37-.24-.612-.607-.624-.519-.018-.877.226-1.11.672-.33.631-.5 1.312-.629 2.006-.012.067-.009.128.058.168zm-8.861 4.068h.263c.033-.001.065-.007.096-.016.828-.221 1.406-.717 1.655-1.548.28-.936.475-1.893.658-2.852.087-.464.052-.942-.102-1.388-.059-.211-.243-.364-.461-.384-.318-.043-.59.06-.823.276-.422.392-.648.89-.76 1.443-.178.871-.346 1.744-.517 2.617-.112.576-.22 1.149-.336 1.722-.02.1 0 .139.106.133.073-.006.147-.003.221-.003z"/>
                    <path fill="#14B151" fill-rule="nonzero" d="M26.99 14.448c-.48.033-.956.066-1.437.034-.868-.06-1.706-.226-2.477-.648-.297-.163-.565-.366-.729-.675-.248-.472-.123-1.048.236-1.47.662-.778 2.112-.914 3.01-.225.108.08.205.173.289.277.093.117.088.185-.028.28-.115.097-.24.185-.336.307-.422.536-.196 1.27.46 1.458.57.163 1.047.023 1.454-.427.75-.831 1.206-1.808 1.488-2.876.064-.24.113-.485.161-.728.016-.079.045-.186-.026-.232-.058-.037-.132.042-.192.084-.585.413-1.218.725-1.92.877-.853.184-1.7.192-2.53-.124-.964-.364-1.666-1.354-1.692-2.381-.005-.527.08-1.05.252-1.547.013-.039.02-.08.031-.12.018-.036.038-.072.053-.11.178-.455.434-.875.755-1.243.643-.732 1.462-1.191 2.363-1.524.547-.195 1.118-.313 1.698-.351.717-.057 1.425-.02 2.123.17.34.102.667.237.979.404.014.016.03.031.048.045.371.232.703.522.984.857.266.31.458.665.628 1.034.037.122.073.244.113.365.089.261.104.537.162.804l.01.298v.414c0 .092-.006.184-.009.277-.022.177-.04.356-.07.532-.045.267-.099.532-.15.798-.006.005-.007.014-.003.021-.026.044-.041.093-.045.144l-.009.053-.33.944c-.078.14-.146.286-.204.436l.004-.003-.02.036c-.003.001-.005.004-.006.007-.002.004-.001.008 0 .01-.083.127-.155.26-.216.398-.066.084-.122.176-.167.274l-.39.552c-.085.083-.16.176-.225.275l-.257.278c-.004 0-.008.001-.01.003-.003.003-.005.006-.005.01-.056.043-.105.094-.144.152l-.58.502c-.34.24-.692.46-1.056.664l-.498.223c-.18.057-.358.115-.538.171-.323.099-.665.144-1.003.216zm2.935-8.617c.002-.366-.037-.73-.117-1.087-.093-.416-.299-.758-.72-.912-.332-.118-.672-.096-1.005.01-.495.154-.822.506-1.097.922-.39.59-.607 1.242-.742 1.931-.128.648-.144 1.289.03 1.93.114.421.393.763.864.815.593.064 1.11-.116 1.526-.528.856-.845 1.248-1.889 1.261-3.083v.002z"/>
                    <path fill="#D42128" fill-rule="nonzero" d="M18.212 7.86l.012-.052c.048-.248.101-.495.144-.744.025-.14-.025-.192-.166-.176-.105.011-.211.014-.317.008-.087-.006-.1-.044-.066-.117.026-.054.063-.101.11-.139.203-.175.436-.307.65-.468.473-.354.833-.816 1.207-1.266.46-.555.955-1.074 1.59-1.435.363-.205.74-.376 1.162-.413.069-.008.138-.008.206 0 .06.007.157-.003.163.066.011.085-.028.169-.1.215-.067.04-.133.083-.197.128-.546.384-.844.936-1.04 1.553-.094.3-.17.604-.232.912-.032.159-.03.16.137.16h.857c.14 0 .164.03.136.164l-.118.581c-.008.035-.012.075-.058.086H21.3c-.04 0-.096-.028-.118.037-.09.077-.089.19-.109.288-.184.945-.367 1.89-.547 2.832-.112.58-.212 1.16-.344 1.735-.03.125-.07.248-.096.374-.069.318.098.533.423.552.213.013.41-.052.608-.113.092-.028.136-.028.108.093-.237 1.025-1.162 1.762-2.2 1.722-.636-.024-1.177-.252-1.513-.834-.225-.388-.228-.8-.144-1.23.288-1.483.56-2.968.838-4.452.003-.022.005-.044.006-.067z"/>
                    <path fill="#14B151" fill-rule="nonzero" d="M31.584 16.556l-.08-.005c-.081-.03-.166-.048-.252-.051l-.012-.007h-.012c-.048-.048-.154-.005-.167-.108l.03-.029.038-.028c.004 0 .008 0 .01-.002.004-.002.006-.005.006-.008l.113-.1c.07-.04.128-.098.169-.167.06-.042.109-.1.14-.166h-.002c.016-.003.027-.017.025-.033.122-.138.216-.298.276-.471.016-.022.03-.046.043-.07.215-.528.288-1.091.395-1.646l.007-.052c.06-.219.106-.442.136-.667.028-.022.022-.052.02-.082l.008-.081c.069-.256.122-.515.16-.777l.003-.029c.036-.097.056-.2.058-.303.04-.087.059-.181.056-.276.09-.367.166-.736.221-1.11l.006-.005-.003-.008c.087-.362.164-.725.216-1.094.007-.005.009-.015.004-.023.091-.357.164-.719.217-1.084.007-.005.009-.015.004-.023.035-.09.054-.184.055-.28.012-.04.027-.078.037-.117.09-.38.117-.758-.038-1.13-.018-.14-.118-.25-.144-.388l.032-.036.277-.02h2.658c.112 0 .176.046.163.167-.048.101-.048.213-.071.32-.07.355-.134.71-.201 1.066-.007.007-.009.017-.004.025-.035.089-.054.184-.055.28-.107.448-.186.903-.27 1.356l-.007.082c-.053.172-.089.35-.107.528l-.003.028c-.032.08-.05.164-.051.25l-.006.047c-.07.268-.124.54-.162.815 0 .01 0 .02-.003.03-.053.18-.09.364-.11.551-.006.006-.008.016-.003.024-.034.08-.05.166-.051.253l-.003.027c-.11.449-.188.903-.271 1.357l-.006.055c-.046.164-.08.33-.104.499l-.008.08c-.096.356-.144.72-.217 1.082-.007.005-.01.015-.005.022-.029.043-.045.093-.048.144-.004.002-.007.004-.008.008v.011c-.359.761-1.05 1.05-1.796 1.253-.192.052-.384.076-.58.113l-.336.014h-.159l-.228-.01zM44.234 7.752c0 .183 0 .366.002.55-.132.99-.346 1.965-.528 2.945-.08.432-.159.869-.24 1.302-.096.51-.034 1.019.008 1.527.014.172 0 .192-.176.192l-2.253.003c-.105 0-.211.006-.317.009-.183-.045-.209-.076-.228-.268-.004-.055-.013-.11-.024-.163-.034-.15-.077-.175-.206-.096-.278.166-.557.332-.848.476l-.028.007-.109.048-.528.163h-.012l-.011.006c-.105.004-.208.022-.309.052l-.162.008h-.305l-.244-.01c-.1-.03-.205-.047-.31-.051l-.01-.006-.013.002c-.216-.074-.437-.135-.638-.25-.418-.238-.735-.62-.889-1.077-.004-.085-.022-.17-.054-.249l-.004-.055c-.014-.252.022-.5.057-.747.003-.002.006-.006.006-.01.001-.003 0-.007-.002-.01.078-.216.14-.436.245-.642.187-.365.458-.662.75-.943l.034-.025.024-.024.556-.39.345-.17c.364-.18.752-.296 1.129-.441.003.002.006.002.01 0 .002 0 .005-.003.006-.006.018 0 .036-.003.054-.007.642-.224 1.285-.447 1.914-.707.24-.096.435-.279.546-.512.154-.318.153-.65.062-.984-.038-.14-.144-.23-.281-.282-.189-.067-.391-.082-.587-.044-.368.06-.561.302-.551.675.003.11.026.22.035.33.015.174-.052.303-.215.378-.353.162-.71.313-1.102.342-.483.035-.896-.106-1.162-.536-.373-.604-.443-1.258-.295-1.943.021-.099.07-.123.156-.07.3.19.637.236.981.224.663-.028 1.324-.095 1.979-.2.627-.097 1.255-.122 1.885-.021.34.062.673.15 1 .262.36.192.626.469.749.87.056.186.072.379.108.568zm-3.038 1.694c-.264.104-.513.185-.735.33-.52.341-.967.783-1.316 1.299-.321.467-.512.963-.42 1.544.057.354.344.658.677.687.228.02.42-.09.609-.192.338-.185.585-.449.648-.843.105-.664.253-1.32.378-1.98.051-.277.104-.551.159-.845z"/>
                    <circle cx="35.472" cy="2.563" r="2.545" fill="#FFF" fill-rule="nonzero" stroke="#000" stroke-width=".5"/>
                    <path stroke="#000" stroke-width=".5" d="M34.528.2l.1.219m-1.504 2.127c.137.322.456.41.74.532m.297-2.236c-.628.152-1.032.812-1.013.816m1.612-.514c-.2.35-.23.812-.128 1.358m.812-2.306c.219-.109.57-.092.999.027M34.272 4.08c-.103.111-.163.298-.213.504M35.678.752c.267.144.757.39 1.066.78M35.28 3.996c.246.311.593.525.98.604m.468-2.13c-.39.24-.806.435-1.241.58m1.953-1.658c-.027-.25-.144-.491-.282-.73m.624 1.731c.11.05.193.143.232.257m-.634.316c.038.358-.108.785-.254 1.214"/>
                    <path fill="#000" fill-rule="nonzero" d="M34.54.223c.336-.069.678-.095 1.02-.079.093.173.128.406.173.638-.397.157-.777.315-1.023.46-.262-.134-.406-.166-.71-.356.1-.24.283-.46.54-.663zm2.9 1.125c.17.355.336.71.403 1.073-.16.24-.326.507-.46.627-.219-.13-.48-.34-.735-.528.006-.41.021-.714.033-1.056.271-.069.533-.124.759-.116zm-4.464 1.7c-.1-.519-.036-1.055.183-1.536l.061.017c-.083.361-.147.72-.063 1.046-.092.141-.138.307-.133.475l-.048-.002zm1.64-.637c.336.205.664.406.98.603-.028.373-.148.71-.245 1.056-.349.112-.736.035-1.104.04-.274-.388-.316-.715-.423-1.057.235-.246.5-.462.79-.642h.002zm2.72 1.88c-.366.396-.848.665-1.378.769l-.113-.052c.134-.092.232-.25.313-.437.275-.017.646-.274 1-.488.068.061.127.132.176.209h.003zm-2.883.6c-.338-.148-.64-.37-.886-.647.168.153.308.288.506.3.02.096.118.204.378.348h.002z"/>
                </g>
            </g>
        </g>
    </g>
</svg>
