<svg xmlns="http://www.w3.org/2000/svg" xmlns:xlink="http://www.w3.org/1999/xlink" width="78" height="78" viewBox="0 0 78 78">
    <defs>
        <filter id="fh1rl6btxa" width="110.8%" height="110.8%" x="-5.4%" y="-2.7%" filterUnits="objectBoundingBox">
            <feOffset dy="2" in="SourceAlpha" result="shadowOffsetOuter1"/>
            <feGaussianBlur in="shadowOffsetOuter1" result="shadowBlurOuter1" stdDeviation="1"/>
            <feColorMatrix in="shadowBlurOuter1" values="0 0 0 0 0 0 0 0 0 0 0 0 0 0 0 0 0 0 0.04 0"/>
        </filter>
        <filter id="66ymp3k15c" width="108.1%" height="108.1%" x="-4.1%" y="-1.4%" filterUnits="objectBoundingBox">
            <feOffset dx="-1" dy="-2" in="SourceAlpha" result="shadowOffsetInner1"/>
            <feComposite in="shadowOffsetInner1" in2="SourceAlpha" k2="-1" k3="1" operator="arithmetic" result="shadowInnerInner1"/>
            <feColorMatrix in="shadowInnerInner1" values="0 0 0 0 0.360733696 0 0 0 0 0.360733696 0 0 0 0 0.360733696 0 0 0 0.0492788462 0"/>
        </filter>
        <circle id="ofyc6brqyb" cx="37" cy="37" r="37"/>
    </defs>
    <g fill="none" fill-rule="evenodd">
        <g>
            <g>
                <g fill-rule="nonzero" transform="translate(-1464 -3487) translate(1466 3487)">
                    <use fill="#000" filter="url(#fh1rl6btxa)" xlink:href="#ofyc6brqyb"/>
                    <use fill="#FFF" xlink:href="#ofyc6brqyb"/>
                    <use fill="#000" filter="url(#66ymp3k15c)" xlink:href="#ofyc6brqyb"/>
                </g>
                <g>
                    <path fill="#E61E29" d="M15.37 14.311L29.296.434c.582-.58 1.533-.578 2.113.004l13.139 13.184c.58.583.578 1.534-.004 2.114L30.619 29.614 15.369 14.31zm12.478-2.462c1.462-1.457 3.829-1.453 5.286.009 1.457 1.462 1.452 3.829-.01 5.286-1.462 1.457-3.828 1.452-5.285-.01-1.457-1.461-1.453-3.828.009-5.285z" transform="translate(-1464 -3487) translate(1466 3487) translate(15 15)"/>
                    <path fill="#0074AD" d="M17.328 27.767c1.463-1.457 3.829-1.453 5.286.01 1.457 1.461 1.453 3.828-.01 5.285-1.461 1.457-3.828 1.453-5.285-.01-1.457-1.461-1.453-3.828.01-5.285zm-10.941.034c1.462-1.457 3.828-1.453 5.286.009 1.456 1.462 1.452 3.828-.01 5.286-1.462 1.457-3.828 1.452-5.285-.01-1.457-1.462-1.453-3.828.009-5.285zM.438 29.19l13.925-13.877 15.25 15.302-13.926 13.877c-.583.58-1.534.58-2.114-.003L.434 31.305c-.58-.582-.578-1.533.004-2.114z" transform="translate(-1464 -3487) translate(1466 3487) translate(15 15)"/>
                    <path fill="#0074AD" fill-rule="nonzero" d="M20.528 44.995v-1.868h-.711v-.326h1.792v.326h-.715v1.868h-.366zm1.326 0V42.8h.539l.554 1.752.535-1.752h.529v2.194h-.335v-1.841l-.565 1.84h-.33l-.59-1.867v1.868h-.337z" transform="translate(-1464 -3487) translate(1466 3487) translate(15 15)"/>
                </g>
            </g>
        </g>
    </g>
</svg>
