<svg xmlns="http://www.w3.org/2000/svg" xmlns:xlink="http://www.w3.org/1999/xlink" width="64" height="64" viewBox="0 0 64 64">
    <defs>
        <filter id="y8fkop2w4a" width="113.5%" height="113.5%" x="-6.8%" y="-3.4%" filterUnits="objectBoundingBox">
            <feOffset dy="2" in="SourceAlpha" result="shadowOffsetOuter1"/>
            <feGaussianBlur in="shadowOffsetOuter1" result="shadowBlurOuter1" stdDeviation="1"/>
            <feColorMatrix in="shadowBlurOuter1" values="0 0 0 0 0 0 0 0 0 0 0 0 0 0 0 0 0 0 0.04 0"/>
        </filter>
        <filter id="5lvetsxb2c" width="110.1%" height="110.1%" x="-5.1%" y="-1.7%" filterUnits="objectBoundingBox">
            <feOffset dx="-1" dy="-2" in="SourceAlpha" result="shadowOffsetInner1"/>
            <feComposite in="shadowOffsetInner1" in2="SourceAlpha" k2="-1" k3="1" operator="arithmetic" result="shadowInnerInner1"/>
            <feColorMatrix in="shadowInnerInner1" values="0 0 0 0 0.360733696 0 0 0 0 0.360733696 0 0 0 0 0.360733696 0 0 0 0.0492788462 0"/>
        </filter>
        <circle id="fcvhzsb7ib" cx="29.6" cy="29.6" r="29.6"/>
    </defs>
    <g fill="none" fill-rule="evenodd">
        <g fill-rule="nonzero">
            <g>
                <g transform="translate(-455 -3330) translate(457 3330)">
                    <use fill="#000" filter="url(#y8fkop2w4a)" xlink:href="#fcvhzsb7ib"/>
                    <use fill="#FFF" xlink:href="#fcvhzsb7ib"/>
                    <use fill="#000" filter="url(#5lvetsxb2c)" xlink:href="#fcvhzsb7ib"/>
                </g>
                <g>
                    <path fill="#4D4D4D" d="M28.332 7.759V2.61c.002-.345-.015-.69-.052-1.033-.08-.68-.44-1.004-1.127-1.064-.329-.028-.657-.066-.995-.1V.176h11.863v.245c-.21.01-.42.014-.63.034-.16.017-.318.044-.474.081-.133.023-.226.146-.211.28.012.162.024.336.093.48.158.326.347.638.532.952.358.606.721 1.208 1.09 1.825.028-.023.054-.049.079-.076.581-.763 1.17-1.52 1.736-2.296.132-.195.226-.413.276-.643.082-.341-.088-.544-.438-.578-.304-.029-.61-.05-.926-.076V.177h4.235v.242c-.147.009-.297.02-.448.027-.695.033-1.304.26-1.765.8-.596.698-1.187 1.398-1.773 2.102-.243.29-.473.591-.716.88-.069.083-.073.139-.016.23.987 1.591 1.967 3.182 2.957 4.769.392.628.805 1.244 1.206 1.867.363.565.892.821 1.548.85.084.004.168.018.258.028v.243H37.02v-.242c.196-.01.392-.01.59-.03.146-.013.289-.043.427-.09.218-.08.328-.262.262-.486-.072-.268-.177-.526-.312-.768-.625-1.051-1.269-2.09-1.904-3.136-.01-.016-.022-.03-.042-.056-.19.247-.38.485-.564.728-.647.86-1.296 1.72-1.934 2.589-.112.158-.197.333-.251.519-.112.366.073.616.448.646.336.029.677.056 1.023.085v.24H30.24v-.234c.213-.01.423-.02.634-.028.815-.028 1.428-.424 1.932-1.037.994-1.208 1.993-2.412 2.997-3.612.082-.099.082-.163.016-.267-1.086-1.732-2.16-3.472-3.255-5.2-.216-.348-.471-.671-.76-.962-.401-.392-.93-.451-1.469-.41-.184.013-.366.04-.549.064-.597.078-.956.397-1.047.999-.049.375-.07.753-.062 1.131-.005 3.125-.005 6.25 0 9.376v.193h-1.884c-.084.006-.165-.033-.213-.103-2.287-2.927-4.576-5.853-6.865-8.778l-.84-1.072c-.028-.035-.056-.067-.109-.124-.009.04-.015.082-.018.123 0 2.591.002 5.182.006 7.773-.006.33.021.662.082.987.112.525.442.784.975.83.184.017.366.04.55.056l.56.05v.246h-4.752v-.23c.28-.03.567-.056.85-.095.206-.026.411-.06.616-.097.26-.041.476-.22.565-.466.084-.21.14-.43.168-.654.028-.296.04-.594.033-.892.003-2.435.003-4.87 0-7.305 0-.274-.016-.548-.026-.822 0-.033-.008-.065-.024-.094-.352-.523-.773-.966-1.422-1.088-.276-.051-.565-.032-.848-.045H16V.17h6.178c.089-.006.174.035.224.108 1.925 2.46 3.851 4.92 5.779 7.378.035.045.077.085.115.127l.036-.023z" transform="translate(-455 -3330) translate(457 3330) translate(7.2 20.8)"/>
                    <path fill="#FE0101" d="M10.846 6.545c.294-.461.608-.944.911-1.432.705-1.134 2.231-1.04 2.988-.504.676.477 1.032 1.12 1.107 1.935.127 1.359-.33 2.543-1.096 3.633-.531.756-1.163 1.406-2.012 1.808-.752.356-1.54.5-2.369.36-.06-.012-.12-.027-.178-.046-.644-.192-.904-.53-.926-1.204.002-.044-.007-.087-.025-.127l-.013.038c-.504 1.22-1.012 2.438-1.512 3.66-.08.196-.145.398-.193.605-.06.252-.01.47.336.486.347.017.697.04 1.056.06v.234H2.607v-.24c.238-.03.479-.064.72-.087.393-.038.716-.21.897-.56.28-.53.548-1.064.784-1.616 1.059-2.505 2.109-5.015 3.15-7.528.107-.27.198-.547.273-.829.04-.139.03-.298-.099-.388-.129-.091-.28-.042-.386.042-.224.175-.458.354-.646.568-.53.598-.976 1.266-1.324 1.985-.008.017-.02.032-.036.056l-.224-.08c.109-.207.208-.406.317-.601.367-.653.771-1.282 1.305-1.811.565-.56 1.245-.825 2.048-.71.777.112 1.264.585 1.386 1.374.047.311.052.635.074.919zm-1.32 4.64c0 .055-.003.111 0 .167.035.44.416.649.789.412.152-.102.28-.237.374-.394 1.001-1.634 1.744-3.384 2.31-5.208.117-.378.224-.763.162-1.168-.052-.336-.275-.47-.578-.313-.186.1-.353.234-.494.392-.375.42-.685.893-.92 1.405-.522 1.11-.977 2.249-1.365 3.412-.137.42-.267.845-.277 1.294z" transform="translate(-455 -3330) translate(457 3330) translate(7.2 20.8)"/>
                    <path fill="#FE0101" d="M5.134 9.53l.2.113c-.467.732-.897 1.476-1.49 2.106-.366.388-.847.554-1.367.616-.342.05-.69.038-1.029-.033-.682-.16-1.143-.715-1.232-1.44-.075-.621.071-1.194.336-1.742.454-.943.925-1.878 1.383-2.82.162-.33.31-.666.458-1.003.048-.098.078-.203.09-.311.005-.09-.015-.224-.074-.262-.09-.043-.195-.043-.286 0-.154.082-.295.185-.421.306-.535.516-.987 1.112-1.34 1.766-.024.045-.05.09-.079.14l-.112-.034c-.037-.013-.069-.028-.117-.049.444-.75.866-1.508 1.533-2.08.504-.446 1.176-.652 1.844-.565.911.112 1.472.76 1.524 1.705.023.402-.04.804-.184 1.18-.382 1.014-.886 1.968-1.41 2.912-.215.387-.404.788-.597 1.187-.045.099-.077.203-.094.31-.046.244.139.434.376.364.169-.043.326-.123.46-.233.242-.212.462-.446.658-.7.29-.383.546-.793.815-1.192.055-.073.101-.155.155-.24zM4.996.002c.925 0 1.582.631 1.582 1.522 0 .862-.7 1.541-1.586 1.542-.887 0-1.564-.66-1.563-1.538C3.431.648 4.092.001 4.996.001z" transform="translate(-455 -3330) translate(457 3330) translate(7.2 20.8)"/>
                </g>
            </g>
        </g>
    </g>
</svg>
