<svg xmlns="http://www.w3.org/2000/svg" xmlns:xlink="http://www.w3.org/1999/xlink" width="64" height="64" viewBox="0 0 64 64">
    <defs>
        <filter id="jr6sg99nka" width="113.5%" height="113.5%" x="-6.8%" y="-3.4%" filterUnits="objectBoundingBox">
            <feOffset dy="2" in="SourceAlpha" result="shadowOffsetOuter1"/>
            <feGaussianBlur in="shadowOffsetOuter1" result="shadowBlurOuter1" stdDeviation="1"/>
            <feColorMatrix in="shadowBlurOuter1" values="0 0 0 0 0 0 0 0 0 0 0 0 0 0 0 0 0 0 0.04 0"/>
        </filter>
        <filter id="q0es5o0qnc" width="110.1%" height="110.1%" x="-5.1%" y="-1.7%" filterUnits="objectBoundingBox">
            <feOffset dx="-1" dy="-2" in="SourceAlpha" result="shadowOffsetInner1"/>
            <feComposite in="shadowOffsetInner1" in2="SourceAlpha" k2="-1" k3="1" operator="arithmetic" result="shadowInnerInner1"/>
            <feColorMatrix in="shadowInnerInner1" values="0 0 0 0 0.360733696 0 0 0 0 0.360733696 0 0 0 0 0.360733696 0 0 0 0.0492788462 0"/>
        </filter>
        <circle id="teygmf2jfb" cx="29.6" cy="29.6" r="29.6"/>
    </defs>
    <g fill="none" fill-rule="evenodd">
        <g fill-rule="nonzero">
            <g>
                <g transform="translate(-522 -3545) translate(524 3545)">
                    <use fill="#000" filter="url(#jr6sg99nka)" xlink:href="#teygmf2jfb"/>
                    <use fill="#FFF" xlink:href="#teygmf2jfb"/>
                    <use fill="#000" filter="url(#q0es5o0qnc)" xlink:href="#teygmf2jfb"/>
                </g>
                <g>
                    <path fill="#1D191C" d="M22.627 16.94l-.45 2.732c-.087.534-.542.922-1.081.922-.541 0-.984-.436-.984-.978v-2.711c0-.625.51-1.133 1.135-1.133h.389c.296 0 .575.128.767.354.19.223.273.521.224.813m-5.007-4.864c0 .624-.508 1.132-1.133 1.132h-.871c-.632 0-1.168-.452-1.273-1.073l-.39-2.367c-.048-.284.033-.574.221-.797.198-.234.49-.37.803-.37h1.526c.614 0 1.116.511 1.116 1.136v2.34zm0 7.544c0 .54-.442.975-.984.975-.538 0-.994-.385-1.082-.922l-.452-2.733c-.046-.292.033-.59.225-.813.193-.226.47-.354.765-.354h.396c.624 0 1.132.508 1.132 1.133v2.714zm-4.85.603c-.198.237-.496.372-.812.372h-.162c-.622 0-1.166-.411-1.326-1.002l-.095-.353c-.17-.617-.379-1.399-.61-2.323-.07-.269-.009-.554.164-.773.183-.232.467-.37.766-.37h.601c.635 0 1.167.452 1.274 1.074l.423 2.58c.046.282-.033.575-.222.795M8.619 12.2c-.174-.684-.338-1.284-.481-1.818l-.157-.585c-.074-.282-.014-.58.165-.814.184-.244.468-.382.778-.382h1.243c.624 0 1.148.455 1.251 1.076l.39 2.363c.047.293-.033.587-.226.814-.191.226-.47.353-.764.353h-.875c-.628 0-1.174-.415-1.324-1.007m19.479 4.75c-.23.917-.443 1.693-.61 2.31l-.076.281c-.166.622-.7 1.053-1.295 1.053h-.42c-.282 0-.548-.125-.733-.34-.193-.225-.276-.528-.228-.826l.43-2.581c.032-.195.112-.373.22-.524-3.8-.95-6.62-4.373-6.62-8.467 0-.622.066-1.228.193-1.815H8.119c-.63 0-1.179-.426-1.336-1.04l-.576-2.246c-.215-.843-.975-1.433-1.854-1.433l-3.2.011C.542 1.335.044 1.83.044 2.441c0 .61.498 1.103 1.104 1.103H2.9c.634 0 1.178.428 1.329 1.04l4.196 17.132c.207.85.964 1.441 1.836 1.441h17.35c.875 0 1.632-.59 1.845-1.44L30.91 15.9c-.87.37-1.814.59-2.801.662.02.125.02.258-.011.388" transform="translate(-522 -3545) translate(524 3545) translate(11.2 16)"/>
                    <path fill="#FF8710" d="M31.4 12.585l-3.718-1.954-3.712 1.954.707-4.14-3.002-2.929 4.151-.603 1.855-3.764 1.861 3.764 4.154.603-3.007 2.93.71 4.139zM27.686.048c-4.066 0-7.364 3.297-7.364 7.361 0 4.065 3.298 7.366 7.364 7.366 4.063 0 7.362-3.301 7.362-7.366 0-4.064-3.299-7.36-7.362-7.36" transform="translate(-522 -3545) translate(524 3545) translate(11.2 16)"/>
                    <path fill="#1D191C" d="M11.304 24.848c-1.752 0-3.176 1.459-3.176 3.254 0 1.794 1.424 3.253 3.176 3.253 1.752 0 3.176-1.46 3.176-3.253 0-1.795-1.424-3.254-3.176-3.254M26.564 24.848c-1.75 0-3.176 1.459-3.176 3.254 0 1.794 1.425 3.253 3.176 3.253 1.75 0 3.176-1.46 3.176-3.253 0-1.795-1.425-3.254-3.176-3.254" transform="translate(-522 -3545) translate(524 3545) translate(11.2 16)"/>
                </g>
            </g>
        </g>
    </g>
</svg>
