<svg xmlns="http://www.w3.org/2000/svg" xmlns:xlink="http://www.w3.org/1999/xlink" width="78" height="78" viewBox="0 0 78 78">
    <defs>
        <filter id="4irpr9qpba" width="110.8%" height="110.8%" x="-5.4%" y="-2.7%" filterUnits="objectBoundingBox">
            <feOffset dy="2" in="SourceAlpha" result="shadowOffsetOuter1"/>
            <feGaussianBlur in="shadowOffsetOuter1" result="shadowBlurOuter1" stdDeviation="1"/>
            <feColorMatrix in="shadowBlurOuter1" values="0 0 0 0 0 0 0 0 0 0 0 0 0 0 0 0 0 0 0.04 0"/>
        </filter>
        <filter id="nilqmiym8c" width="108.1%" height="108.1%" x="-4.1%" y="-1.4%" filterUnits="objectBoundingBox">
            <feOffset dx="-1" dy="-2" in="SourceAlpha" result="shadowOffsetInner1"/>
            <feComposite in="shadowOffsetInner1" in2="SourceAlpha" k2="-1" k3="1" operator="arithmetic" result="shadowInnerInner1"/>
            <feColorMatrix in="shadowInnerInner1" values="0 0 0 0 0.360733696 0 0 0 0 0.360733696 0 0 0 0 0.360733696 0 0 0 0.0492788462 0"/>
        </filter>
        <circle id="46giuhhfpb" cx="37" cy="37" r="37"/>
    </defs>
    <g fill="none" fill-rule="evenodd">
        <g fill-rule="nonzero">
            <g>
                <g transform="translate(-1293 -3417) translate(1295 3417)">
                    <use fill="#000" filter="url(#4irpr9qpba)" xlink:href="#46giuhhfpb"/>
                    <use fill="#FFF" xlink:href="#46giuhhfpb"/>
                    <use fill="#000" filter="url(#nilqmiym8c)" xlink:href="#46giuhhfpb"/>
                </g>
                <g>
                    <path fill="#F9A024" d="M40.403 7.392c-4.356-4.374-10.33-6.75-16.5-6.56C17.891.724 12.083 3.01 7.757 7.187 3.432 11.363.943 17.088.84 23.1v.8c-.4 12.517 9.544 22.96 22.069 23.253h.994c12.525.299 22.957-9.643 23.162-22.168v-1.192c.178-6.16-2.24-12.11-6.662-16.401z" transform="translate(-1293 -3417) translate(1295 3417) translate(13 13)"/>
                    <path fill="#ED017F" d="M23.903 47.65C11.076 47.874.468 37.71.143 24.886v-.994C-.082 11.064 10.081.456 22.906.132h.995C30.057-.015 36.019 2.29 40.475 6.54c4.456 4.25 7.041 10.096 7.186 16.252v1.1c.165 6.161-2.135 12.133-6.388 16.593-4.254 4.46-10.11 7.04-16.272 7.167l-1.098-.002zm0-46.321c-12.151-.28-22.24 9.32-22.565 21.47v1.1c-.198 12.227 9.343 22.367 21.67 22.565h.895c5.85.185 11.531-1.983 15.771-6.018s6.687-9.602 6.792-15.454v-1.1c.3-12.126-9.442-22.266-21.56-22.464l-1.003-.1z" transform="translate(-1293 -3417) translate(1295 3417) translate(13 13)"/>
                    <path fill="#ED017F" d="M11.975 16.04c.815-.737 1.882-1.13 2.98-1.1 1.23-.02 2.448.217 3.58.695 1.23.492 2.397 1.126 3.478 1.89l.497-.398c-.695-1.393-1.788-2.486-3.08-3.38-1.395-.787-2.971-1.199-4.573-1.194-.85.022-1.691.19-2.484.497-.805.32-1.495.874-1.98 1.591-.497.596-.797 1.393-1.1 2.088-.214.742-.281 1.518-.198 2.286h.695c.52-1.129 1.264-2.14 2.185-2.975zm15.01-2.18c.992-.695 2.187-1.1 3.38-1.492.994-.297 2.186-.099 3.18.498 1.064.663 2.005 1.504 2.784 2.486l.596-.2c-.1-.696-.3-1.591-.797-2.187-.36-.755-.907-1.405-1.59-1.888-.596-.596-1.49-.895-2.286-1.1-.85-.2-1.735-.2-2.585 0-3.08.749-5.513 3.106-6.36 6.16l.596.3 2.981-2.685M37.62 29.46c-.467 1.169-1.137 2.245-1.98 3.18-.396.397-.794.895-1.39 1.293l-1.492 1.1c-2.198 1.175-4.588 1.949-7.058 2.286-2.477.38-5.002.313-7.455-.198-1.205-.3-2.371-.734-3.479-1.294-1.192-.497-2.186-1.291-3.28-2.088l-.299.3c1.592 2.3 3.898 4.012 6.56 4.87 2.675.974 5.562 1.214 8.36.695 2.8-.366 5.465-1.425 7.753-3.08 2.282-1.743 3.784-4.315 4.18-7.158h-.42v.094zM23.505 22l.895 8.25.497-.099L23.903 22h-.398z" transform="translate(-1293 -3417) translate(1295 3417) translate(13 13)"/>
                </g>
            </g>
        </g>
    </g>
</svg>
