<svg xmlns="http://www.w3.org/2000/svg" xmlns:xlink="http://www.w3.org/1999/xlink" width="78" height="78" viewBox="0 0 78 78">
    <defs>
        <filter id="az7f08pwma" width="110.8%" height="110.8%" x="-5.4%" y="-2.7%" filterUnits="objectBoundingBox">
            <feOffset dy="2" in="SourceAlpha" result="shadowOffsetOuter1"/>
            <feGaussianBlur in="shadowOffsetOuter1" result="shadowBlurOuter1" stdDeviation="1"/>
            <feColorMatrix in="shadowBlurOuter1" values="0 0 0 0 0 0 0 0 0 0 0 0 0 0 0 0 0 0 0.04 0"/>
        </filter>
        <filter id="o9bvja8c4c" width="108.1%" height="108.1%" x="-4.1%" y="-1.4%" filterUnits="objectBoundingBox">
            <feOffset dx="-1" dy="-2" in="SourceAlpha" result="shadowOffsetInner1"/>
            <feComposite in="shadowOffsetInner1" in2="SourceAlpha" k2="-1" k3="1" operator="arithmetic" result="shadowInnerInner1"/>
            <feColorMatrix in="shadowInnerInner1" values="0 0 0 0 0.360733696 0 0 0 0 0.360733696 0 0 0 0 0.360733696 0 0 0 0.0492788462 0"/>
        </filter>
        <circle id="6s5s6awkbb" cx="37" cy="37" r="37"/>
    </defs>
    <g fill="none" fill-rule="evenodd">
        <g fill-rule="nonzero">
            <g>
                <g transform="translate(-508 -3417) translate(510 3417)">
                    <use fill="#000" filter="url(#az7f08pwma)" xlink:href="#6s5s6awkbb"/>
                    <use fill="#FFF" xlink:href="#6s5s6awkbb"/>
                    <use fill="#000" filter="url(#o9bvja8c4c)" xlink:href="#6s5s6awkbb"/>
                </g>
                <g>
                    <path fill="#F6D600" d="M19.371.096h.378c.02.132.126.126.218.126.885.005 1.768.061 2.646.17 1.38.158 2.742.456 4.062.89.904.314 1.788.685 2.646 1.108.676.351 1.322.756 1.932 1.212.692.483 1.307 1.079 1.913 1.666.65.639 1.24 1.336 1.764 2.083.776 1.07 1.354 2.235 1.912 3.428.2.436.332.89.504 1.336.31.814.558 1.65.745 2.501.18.814.304 1.657.408 2.49.169 1.278.267 2.565.294 3.854.009.492-.03.984-.038 1.467-.027 1.071-.116 2.14-.266 3.201-.113.833-.227 1.666-.417 2.49-.241 1.043-.554 2.068-.937 3.068-.178.508-.4.999-.663 1.468-.009 0-.019-.01-.028-.01-.009 0 .02.01.028.01 0 .072-.016.143-.047.208-.293.597-.681 1.145-.985 1.743-.331.652-.862 1.193-1.307 1.764-.678.846-1.46 1.603-2.33 2.253-.706.562-1.46 1.063-2.252 1.496-.483.252-.967.53-1.477.739-.378.161-.796.264-1.174.426-.882.369-1.81.539-2.728.776-.284.07-.572.12-.862.151-.672.077-1.344.142-2.016.21-.815.065-1.63.056-2.443.075-.582.023-1.166-.006-1.743-.086-.596-.094-1.212-.094-1.789-.227-.862-.199-1.734-.35-2.575-.606-.929-.274-1.81-.673-2.69-1.06-.881-.389-1.676-.947-2.471-1.513-.52-.369-.976-.804-1.458-1.22-.143-.127-.252-.266-.39-.399-.408-.368-.785-.77-1.126-1.202-.426-.578-.843-1.155-1.22-1.764-1.008-1.623-1.764-3.388-2.245-5.236-.237-.91-.426-1.819-.606-2.737C.286 25.053.207 23.65.131 22.25c-.069-1.035-.047-2.074.066-3.106.056-.444.029-.89.104-1.335.126-.739.19-1.487.34-2.215.153-.756.332-1.512.54-2.268.265-.96.597-1.9.995-2.813.189-.444.436-.87.653-1.296.33-.638.7-1.255 1.109-1.847.426-.62.904-1.203 1.428-1.742.52-.557 1.074-1.082 1.659-1.572.578-.464 1.192-.882 1.835-1.25.587-.34 1.204-.63 1.81-.937.455-.237.946-.37 1.42-.55.746-.267 1.508-.489 2.282-.663.478-.103.962-.182 1.449-.236.89-.126 1.77-.246 2.67-.227h.63c.108.026.231.059.25-.097zm.218 40.176c1.046-.016 2.089-.126 3.115-.33.805-.17 1.592-.417 2.349-.738.93-.395 1.807-.903 2.613-1.512.779-.593 1.49-1.269 2.122-2.016.542-.631 1.027-1.31 1.449-2.028.197-.359.415-.72.596-1.097.408-.875.765-1.773 1.07-2.689.132-.407.265-.814.36-1.22.292-1.193.513-2.4.663-3.618.132-1.08.16-2.159.226-3.239.057-1.008-.037-1.998-.103-3-.062-.925-.176-1.845-.341-2.757-.332-1.837-.814-3.636-1.592-5.34-.433-.994-.97-1.94-1.6-2.822-.7-.956-1.458-1.866-2.404-2.613-1.07-.873-2.277-1.564-3.571-2.046-1.65-.596-3.397-.882-5.15-.842-.389.009-.768.028-1.156.057-.623.037-1.243.118-1.855.24-1.25.244-2.456.675-3.578 1.278-.5.262-.978.562-1.43.9-.715.557-1.38 1.175-1.989 1.846-.45.508-.86 1.05-1.23 1.619-.62.94-1.143 1.94-1.563 2.983-.243.566-.453 1.144-.63 1.733-.386 1.338-.677 2.702-.872 4.081-.174 1.294-.213 2.575-.28 3.863-.048.929.057 1.856.105 2.785.047.988.16 1.972.34 2.944.37 1.96.9 3.872 1.79 5.67.51 1.09 1.145 2.116 1.89 3.06 1.446 1.837 3.373 3.236 5.567 4.043 1.643.588 3.338.767 5.09.805z" transform="translate(-508 -3417) translate(510 3417) translate(17 15)"/>
                    <path fill="#F4B400" d="M19.59 40.272c-1.743-.038-3.447-.217-5.086-.823-1.029-.374-2.003-.882-2.898-1.512-1.003-.715-1.901-1.567-2.669-2.531-.743-.946-1.377-1.972-1.89-3.06-.89-1.799-1.411-3.711-1.79-5.67-.182-.972-.296-1.957-.343-2.945-.048-.929-.152-1.856-.105-2.785.057-1.287.095-2.575.284-3.863.195-1.379.486-2.743.872-4.081.177-.589.387-1.167.63-1.733.424-1.042.947-2.041 1.562-2.983.375-.566.786-1.107 1.231-1.62.61-.67 1.275-1.288 1.989-1.845.454-.334.932-.635 1.43-.9 1.118-.606 2.323-1.036 3.573-1.275.612-.121 1.233-.2 1.856-.236.388-.019.767-.047 1.155-.056 1.754-.035 3.5.25 5.151.841 1.295.481 2.502 1.173 3.571 2.047.946.747 1.704 1.657 2.404 2.613.626.884 1.162 1.83 1.6 2.821.787 1.705 1.26 3.504 1.592 5.341.165.912.279 1.832.34 2.757.066 1.008.16 1.997.103 3.001-.065 1.08-.094 2.159-.226 3.239-.15 1.216-.37 2.422-.662 3.612-.105.407-.228.824-.36 1.22-.303.918-.66 1.816-1.07 2.691-.18.378-.388.738-.596 1.097-.417.72-.903 1.398-1.45 2.024-1.276 1.536-2.9 2.745-4.735 3.528-.757.322-1.544.569-2.35.738-1.023.219-2.067.335-3.114.348zm2.812-5.606c.142 0 .293.01.436 0 .142-.01.283-.046.434-.056 1.359-.088 2.678-.49 3.855-1.175 1.133-.631 2.148-1.455 3-2.433.655-.748 1.26-1.543 1.687-2.433.828-1.693 1.141-3.593.9-5.463-.184-1.367-.58-2.696-1.175-3.94-.908-1.96-2.196-3.674-3.664-5.237-1.325-1.426-2.827-2.678-4.47-3.723-1.097-.708-2.283-1.268-3.527-1.667-1.345-.426-2.727-.663-4.158-.53-.53.042-1.055.127-1.571.253-1.315.35-2.546.961-3.618 1.8-1.142.863-2.12 1.925-2.888 3.134-1.22 1.892-1.722 4.16-1.411 6.39.184 1.39.59 2.741 1.202 4.002.753 1.541 1.705 2.977 2.831 4.27 1.01 1.187 2.128 2.274 3.343 3.249 1.238.999 2.6 1.833 4.052 2.48 1.494.671 3.105 1.038 4.742 1.08z" transform="translate(-508 -3417) translate(510 3417) translate(17 15)"/>
                    <path fill="#636363" d="M36.472 32.66c-.009 0-.019-.01-.028-.01.01 0 .02.002.028.01z" transform="translate(-508 -3417) translate(510 3417) translate(17 15)"/>
                    <path fill="#EA6E00" d="M22.402 34.666c-1.642-.04-3.259-.41-4.754-1.088-1.455-.644-2.818-1.478-4.053-2.481-1.214-.976-2.333-2.064-3.342-3.251-1.108-1.317-2.083-2.709-2.832-4.271-.611-1.26-1.017-2.608-1.202-3.996-.303-2.233.204-4.501 1.43-6.392.767-1.209 1.746-2.27 2.888-3.133 1.071-.84 2.302-1.451 3.617-1.8.516-.127 1.042-.211 1.572-.252 1.43-.132 2.802.105 4.158.53 1.242.405 2.427.965 3.528 1.668 1.645 1.04 3.148 2.291 4.47 3.72 1.476 1.578 2.757 3.276 3.667 5.232.594 1.244.99 2.573 1.173 3.939.244 1.87-.069 3.77-.9 5.463-.434.9-1.031 1.686-1.684 2.434-.851.98-1.867 1.803-3.001 2.434-1.176.685-2.496 1.087-3.855 1.174-.142.009-.284.046-.436.057-.147.013-.296.018-.444.013zm-.73-22.696c-.93-.003-1.854.16-2.727.483-1.922.691-3.541 1.866-4.98 3.294-.698.679-1.331 1.42-1.89 2.217-1.26 1.856-2.15 3.815-1.952 6.126.05.697.223 1.38.511 2.016.574 1.25 1.45 2.336 2.548 3.163 1.085.849 2.404 1.345 3.78 1.42.898.044 1.796-.084 2.646-.378 2.045-.664 3.769-1.848 5.292-3.343.901-.874 1.693-1.853 2.359-2.917 1.022-1.676 1.713-3.446 1.552-5.474-.075-.94-.356-1.851-.824-2.67-.49-.851-1.131-1.608-1.89-2.233-1.275-1.074-2.74-1.695-4.425-1.704z" transform="translate(-508 -3417) translate(510 3417) translate(17 15)"/>
                    <path fill="#D50016" d="M21.672 11.97c1.696.019 3.144.63 4.423 1.714.758.626 1.398 1.383 1.89 2.235.467.819.748 1.73.824 2.67.16 2.026-.53 3.787-1.554 5.473-.66 1.068-1.452 2.047-2.357 2.916-1.525 1.497-3.249 2.68-5.292 3.343-.85.294-1.748.422-2.646.378-1.375-.08-2.694-.575-3.78-1.422-1.094-.831-1.968-1.917-2.547-3.162-.287-.637-.46-1.32-.511-2.016-.2-2.321.691-4.284 1.95-6.128.557-.797 1.19-1.54 1.89-2.215 1.439-1.43 3.058-2.604 4.98-3.295.871-.331 1.797-.498 2.73-.491zm4.253 9.516c.027-2.121-.862-3.56-2.634-4.403-2.268-1.08-4.63-1.089-6.988-.293-1.26.425-2.282 1.193-2.869 2.424-.382.826-.527 1.742-.416 2.646.133 1.269.653 2.33 1.647 3.125 1.26 1.008 2.772 1.344 4.328 1.43 1.235.074 2.471-.104 3.635-.522 1.99-.714 3.353-2.315 3.297-4.407z" transform="translate(-508 -3417) translate(510 3417) translate(17 15)"/>
                    <path fill="#370773" d="M25.925 21.486c.056 2.092-1.307 3.684-3.287 4.41-1.164.418-2.401.595-3.636.521-1.571-.086-3.068-.417-4.327-1.43-.994-.795-1.524-1.846-1.648-3.125-.11-.903.034-1.82.417-2.646.587-1.23 1.61-1.998 2.87-2.424 2.357-.795 4.714-.786 6.987.294 1.762.84 2.655 2.279 2.624 4.4z" transform="translate(-508 -3417) translate(510 3417) translate(17 15)"/>
                </g>
            </g>
        </g>
    </g>
</svg>
