<svg xmlns="http://www.w3.org/2000/svg" width="19" height="19" viewBox="0 0 19 19">
    <g fill="none" fill-rule="evenodd">
        <g fill-rule="nonzero">
            <g>
                <g>
                    <path fill="#009FE4" d="M19 16.91c0 1.155-.935 2.09-2.09 2.09H6.049c-1.154 0-2.09-.935-2.09-2.09V6.049c0-1.155.936-2.09 2.09-2.09H16.91c1.154 0 2.089.935 2.089 2.09V16.91z" transform="translate(-250 -776) translate(250 769) translate(0 7)"/>
                    <path fill="#A6E4FF" d="M15.042 12.952c0 1.155-.935 2.09-2.09 2.09H2.09C.936 15.042 0 14.107 0 12.952V2.09C0 .935.936 0 2.09 0h10.863c1.154 0 2.089.935 2.089 2.09v10.862z" transform="translate(-250 -776) translate(250 769) translate(0 7)"/>
                    <path fill="#009FE4" d="M6.759 11.875L3.167 8.229 4.266 7.113 6.759 9.645 12.359 3.958 13.458 5.074z" transform="translate(-250 -776) translate(250 769) translate(0 7)"/>
                </g>
            </g>
        </g>
    </g>
</svg>
