<svg xmlns="http://www.w3.org/2000/svg" width="130" height="119" viewBox="0 0 130 119">
    <g fill="#020410" fill-rule="nonzero">
        <path d="M112.577 97.325c-18.85 23.745-55.815 17.87-64.383-11.75-.49-1.47-.734-3.183-.979-4.652 19.829-4.406 39.168-18.85 40.882-36.23 1.469-15.667-14.443-20.319-24.97-11.506-12.485 10.527-21.297 25.949-22.032 42.35-12.73 1.714-25.214-1.713-32.069-14.198-11.505-21.053 3.917-49.45 24.48-57.773 2.204-.734 1.224-4.162-.979-3.427C4.13 8.218-10.558 47.875 8.782 71.376 16.37 80.434 28.61 83.37 41.34 81.902c1.714 16.646 14.688 29.866 30.11 35.006 17.87 5.876 34.272-2.692 44.798-16.646 1.714-2.203-1.958-4.896-3.671-2.937zm-54.835-49.45c3.916-5.385 9.057-11.505 15.667-13.709 6.364-2.203 8.568 6.61 8.812 10.527.245 4.896-3.182 9.302-6.365 12.73C69.247 65.01 58.231 71.62 46.97 74.557c.735-9.547 5.386-18.85 10.772-26.683z"/>
        <path d="M126.285 88.267c-6.854 0-13.953.49-20.563 2.203-2.692.735-1.469 4.407 1.224 3.917 5.386-.979 11.016-.734 16.402-.49-.245 3.183-.49 6.61-.98 9.792-.489 2.448-2.202 6.12-.734 8.568.735 1.225 1.959 1.225 3.183.735 2.937-1.224 2.937-6.365 3.427-9.058.734-4.407.979-8.568.979-12.975 0-1.468-1.469-2.692-2.938-2.692z"/>
    </g>
</svg>
